# Blender 4.1.1
# www.blender.org
mtllib log.mtl
g Cylinder_Cylinder
v 0.000000 -1.000000 -0.752361
v 0.000000 2.911923 -0.752361
v 0.146778 -1.000000 -0.737904
v 0.146778 2.911923 -0.737904
v 0.287916 -1.000000 -0.695091
v 0.287916 2.911923 -0.695091
v 0.417989 -1.000000 -0.625565
v 0.417989 2.911923 -0.625565
v 0.531999 -1.000000 -0.531999
v 0.531999 2.911923 -0.531999
v 0.625565 -1.000000 -0.417989
v 0.625565 2.911923 -0.417989
v 0.695091 -1.000000 -0.287916
v 0.695091 2.911923 -0.287916
v 0.737904 -1.000000 -0.146778
v 0.737904 2.911923 -0.146778
v 0.752361 -1.000000 -0.000000
v 0.752361 2.911923 -0.000000
v 0.737904 -1.000000 0.146778
v 0.737904 2.911923 0.146778
v 0.695091 -1.000000 0.287916
v 0.695091 2.911923 0.287916
v 0.625565 -1.000000 0.417989
v 0.625565 2.911923 0.417989
v 0.531999 -1.000000 0.531999
v 0.531999 2.911923 0.531999
v 0.417989 -1.000000 0.625565
v 0.417989 2.911923 0.625565
v 0.287916 -1.000000 0.695091
v 0.287916 2.911923 0.695091
v 0.146778 -1.000000 0.737904
v 0.146778 2.911923 0.737904
v 0.000000 -1.000000 0.752361
v 0.000000 2.911923 0.752361
v -0.146778 -1.000000 0.737904
v -0.146778 2.911923 0.737904
v -0.287916 -1.000000 0.695091
v -0.287916 2.911923 0.695091
v -0.417989 -1.000000 0.625565
v -0.417989 2.911923 0.625565
v -0.531999 -1.000000 0.531999
v -0.531999 2.911923 0.531999
v -0.625565 -1.000000 0.417989
v -0.625565 2.911923 0.417989
v -0.695091 -1.000000 0.287916
v -0.695091 2.911923 0.287916
v -0.737904 -1.000000 0.146778
v -0.737904 2.911923 0.146778
v -0.752361 -1.000000 -0.000000
v -0.752361 2.911923 -0.000000
v -0.737904 -1.000000 -0.146778
v -0.737904 2.911923 -0.146778
v -0.695091 -1.000000 -0.287916
v -0.695091 2.911923 -0.287916
v -0.625565 -1.000000 -0.417989
v -0.625565 2.911923 -0.417989
v -0.531999 -1.000000 -0.531999
v -0.531999 2.911923 -0.531999
v -0.417989 -1.000000 -0.625565
v -0.417989 2.911923 -0.625565
v -0.287916 -1.000000 -0.695091
v -0.287916 2.911923 -0.695091
v -0.146778 -1.000000 -0.737904
v -0.146778 2.911923 -0.737904
vn 0.0980 -0.0000 -0.9952
vn 0.2903 -0.0000 -0.9569
vn 0.4714 -0.0000 -0.8819
vn 0.6344 -0.0000 -0.7730
vn 0.7730 -0.0000 -0.6344
vn 0.8819 -0.0000 -0.4714
vn 0.9569 -0.0000 -0.2903
vn 0.9952 -0.0000 -0.0980
vn 0.9952 -0.0000 0.0980
vn 0.9569 -0.0000 0.2903
vn 0.8819 -0.0000 0.4714
vn 0.7730 -0.0000 0.6344
vn 0.6344 -0.0000 0.7730
vn 0.4714 -0.0000 0.8819
vn 0.2903 -0.0000 0.9569
vn 0.0980 -0.0000 0.9952
vn -0.0980 -0.0000 0.9952
vn -0.2903 -0.0000 0.9569
vn -0.4714 -0.0000 0.8819
vn -0.6344 -0.0000 0.7730
vn -0.7730 -0.0000 0.6344
vn -0.8819 -0.0000 0.4714
vn -0.9569 -0.0000 0.2903
vn -0.9952 -0.0000 0.0980
vn -0.9952 -0.0000 -0.0980
vn -0.9569 -0.0000 -0.2903
vn -0.8819 -0.0000 -0.4714
vn -0.7730 -0.0000 -0.6344
vn -0.6344 -0.0000 -0.7730
vn -0.4714 -0.0000 -0.8819
vn -0.2903 -0.0000 -0.9569
vn -0.0980 -0.0000 -0.9952
vt 0.500000 0.011010
vt 0.500000 0.988990
vt 0.536695 0.988990
vt 0.536695 0.011010
vt 0.571979 0.988990
vt 0.571979 0.011010
vt 0.604497 0.988990
vt 0.604497 0.011010
vt 0.633000 0.988990
vt 0.633000 0.011010
vt 0.463305 0.988990
vt 0.463305 0.011010
vt 0.428021 0.988990
vt 0.428021 0.011010
vt 0.395503 0.988990
vt 0.395503 0.011010
vt 0.367000 0.988990
vt 0.367000 0.011010
s 0
g Cylinder_Tree_Bark.042
usemtl Tree_Bark.042
f 1/1/1 2/2/1 4/3/1 3/4/1
f 3/4/2 4/3/2 6/5/2 5/6/2
f 5/6/3 6/5/3 8/7/3 7/8/3
f 7/8/4 8/7/4 10/9/4 9/10/4
f 9/10/5 10/9/5 12/7/5 11/8/5
f 11/8/6 12/7/6 14/5/6 13/6/6
f 13/6/7 14/5/7 16/3/7 15/4/7
f 15/4/8 16/3/8 18/2/8 17/1/8
f 17/1/9 18/2/9 20/11/9 19/12/9
f 19/12/10 20/11/10 22/13/10 21/14/10
f 21/14/11 22/13/11 24/15/11 23/16/11
f 23/16/12 24/15/12 26/17/12 25/18/12
f 25/10/13 26/9/13 28/7/13 27/8/13
f 27/8/14 28/7/14 30/5/14 29/6/14
f 29/6/15 30/5/15 32/3/15 31/4/15
f 31/4/16 32/3/16 34/2/16 33/1/16
f 33/1/17 34/2/17 36/11/17 35/12/17
f 35/12/18 36/11/18 38/13/18 37/14/18
f 37/14/19 38/13/19 40/15/19 39/16/19
f 39/16/20 40/15/20 42/17/20 41/18/20
f 41/18/21 42/17/21 44/15/21 43/16/21
f 43/16/22 44/15/22 46/13/22 45/14/22
f 45/14/23 46/13/23 48/11/23 47/12/23
f 47/12/24 48/11/24 50/2/24 49/1/24
f 49/1/25 50/2/25 52/3/25 51/4/25
f 51/4/26 52/3/26 54/5/26 53/6/26
f 53/6/27 54/5/27 56/7/27 55/8/27
f 55/8/28 56/7/28 58/9/28 57/10/28
f 57/18/29 58/17/29 60/15/29 59/16/29
f 59/16/30 60/15/30 62/13/30 61/14/30
f 61/14/31 62/13/31 64/11/31 63/12/31
f 63/12/32 64/11/32 2/2/32 1/1/32
g Cylinder.001_Cylinder.001
v 0.000000 -1.000000 -0.752361
v 0.000000 2.911923 -0.752361
v 0.146778 -1.000000 -0.737904
v 0.146778 2.911923 -0.737904
v 0.287916 -1.000000 -0.695091
v 0.287916 2.911923 -0.695091
v 0.417989 -1.000000 -0.625565
v 0.417989 2.911923 -0.625565
v 0.531999 -1.000000 -0.531999
v 0.531999 2.911923 -0.531999
v 0.625565 -1.000000 -0.417989
v 0.625565 2.911923 -0.417989
v 0.695091 -1.000000 -0.287916
v 0.695091 2.911923 -0.287916
v 0.737904 -1.000000 -0.146778
v 0.737904 2.911923 -0.146778
v 0.752361 -1.000000 -0.000000
v 0.752361 2.911923 -0.000000
v 0.737904 -1.000000 0.146778
v 0.737904 2.911923 0.146778
v 0.695091 -1.000000 0.287916
v 0.695091 2.911923 0.287916
v 0.625565 -1.000000 0.417989
v 0.625565 2.911923 0.417989
v 0.531999 -1.000000 0.531999
v 0.531999 2.911923 0.531999
v 0.417989 -1.000000 0.625565
v 0.417989 2.911923 0.625565
v 0.287916 -1.000000 0.695091
v 0.287916 2.911923 0.695091
v 0.146778 -1.000000 0.737904
v 0.146778 2.911923 0.737904
v 0.000000 -1.000000 0.752361
v 0.000000 2.911923 0.752361
v -0.146778 -1.000000 0.737904
v -0.146778 2.911923 0.737904
v -0.287916 -1.000000 0.695091
v -0.287916 2.911923 0.695091
v -0.417989 -1.000000 0.625565
v -0.417989 2.911923 0.625565
v -0.531999 -1.000000 0.531999
v -0.531999 2.911923 0.531999
v -0.625565 -1.000000 0.417989
v -0.625565 2.911923 0.417989
v -0.695091 -1.000000 0.287916
v -0.695091 2.911923 0.287916
v -0.737904 -1.000000 0.146778
v -0.737904 2.911923 0.146778
v -0.752361 -1.000000 -0.000000
v -0.752361 2.911923 -0.000000
v -0.737904 -1.000000 -0.146778
v -0.737904 2.911923 -0.146778
v -0.695091 -1.000000 -0.287916
v -0.695091 2.911923 -0.287916
v -0.625565 -1.000000 -0.417989
v -0.625565 2.911923 -0.417989
v -0.531999 -1.000000 -0.531999
v -0.531999 2.911923 -0.531999
v -0.417989 -1.000000 -0.625565
v -0.417989 2.911923 -0.625565
v -0.287916 -1.000000 -0.695091
v -0.287916 2.911923 -0.695091
v -0.146778 -1.000000 -0.737904
v -0.146778 2.911923 -0.737904
vn -0.0000 1.0000 -0.0000
vn -0.0000 -1.0000 -0.0000
vt 0.536695 0.684476
vt 0.500000 0.688090
vt 0.463305 0.684476
vt 0.428021 0.673773
vt 0.395503 0.656391
vt 0.367000 0.633000
vt 0.343609 0.604497
vt 0.326227 0.571979
vt 0.315524 0.536695
vt 0.311910 0.500000
vt 0.315524 0.463305
vt 0.326227 0.428021
vt 0.343609 0.395503
vt 0.367000 0.367000
vt 0.395503 0.343609
vt 0.428021 0.326227
vt 0.463305 0.315524
vt 0.500000 0.311910
vt 0.536695 0.315524
vt 0.571979 0.326227
vt 0.604497 0.343609
vt 0.633000 0.367000
vt 0.656391 0.395503
vt 0.673773 0.428021
vt 0.684476 0.463305
vt 0.688090 0.500000
vt 0.684476 0.536695
vt 0.673773 0.571979
vt 0.656391 0.604497
vt 0.633000 0.633000
vt 0.604497 0.656391
vt 0.571979 0.673773
s 0
g Cylinder.001_Circles_fabric
usemtl Circles_fabric
f 68/19/33 66/20/33 128/21/33 126/22/33 124/23/33 122/24/33 120/25/33 118/26/33 116/27/33 114/28/33 112/29/33 110/30/33 108/31/33 106/32/33 104/33/33 102/34/33 100/35/33 98/36/33 96/37/33 94/38/33 92/39/33 90/40/33 88/41/33 86/42/33 84/43/33 82/44/33 80/45/33 78/46/33 76/47/33 74/48/33 72/49/33 70/50/33
f 65/20/34 67/19/34 69/50/34 71/49/34 73/48/34 75/47/34 77/46/34 79/45/34 81/44/34 83/43/34 85/42/34 87/41/34 89/40/34 91/39/34 93/38/34 95/37/34 97/36/34 99/35/34 101/34/34 103/33/34 105/32/34 107/31/34 109/30/34 111/29/34 113/28/34 115/27/34 117/26/34 119/25/34 121/24/34 123/23/34 125/22/34 127/21/34
